<?xml version="1.0" encoding="UTF-8"?>
<!--Generator: Apple Native CoreSVG 175.5-->
<!DOCTYPE svg
PUBLIC "-//W3C//DTD SVG 1.1//EN"
       "http://www.w3.org/Graphics/SVG/1.1/DTD/svg11.dtd">
<svg version="1.1" xmlns="http://www.w3.org/2000/svg" xmlns:xlink="http://www.w3.org/1999/xlink" width="45.8856" height="51.9156">
 <g>
  <rect height="51.9156" opacity="0" width="45.8856" x="0" y="0"/>
  <path d="M32.6727 12.5301C29.7625 12.5301 27.5164 14.1316 25.9344 17.8621C20.2703 12.1785 11.325 7.11991 2.39925 6.43632C0.407063 6.2996 0.0750315 7.84257 0.035969 8.99491C-0.589031 18.7801 7.00863 27.2957 16.7743 28.409C14.1961 34.1512 10.7196 39.6199 5.89534 44.1902C5.11409 44.9129 5.32894 45.9285 5.81722 46.6512C8.12191 50.2059 15.3289 52.3152 20.1922 50.6355C21.3641 50.2254 21.5594 49.5809 21.5594 48.6824L21.5594 41.4363C26.8914 41.1434 35.3289 37.6277 33.9422 26.7879L33.7469 25.4207C37.7508 24.4051 40.4657 21.8074 40.4657 19.1902C40.4657 15.9871 36.9305 12.5301 32.6727 12.5301ZM32.8485 15.3426C35.6414 15.3426 37.6532 17.3738 37.6532 19.1902C37.6532 20.6746 35.6805 22.3934 31.8914 22.9207C31.3055 22.9793 30.8758 23.409 30.9344 23.9559L31.1883 26.866C32.0282 36.9051 24.2547 38.3309 19.7235 38.5457C19.1571 38.5652 18.7274 38.9559 18.7274 39.5418L18.7274 48.0965C18.7274 48.2918 18.6493 48.448 18.4344 48.4676C14.6453 49.1512 10.5243 47.784 8.57113 45.7723C8.43441 45.6355 8.37581 45.4207 8.53206 45.284C13.8055 40.2254 17.3993 34.0926 20.0946 27.6473C20.4657 26.7488 20.1141 26.0262 19.1961 25.9871C9.89925 25.7527 2.92659 18.9168 2.84847 9.67851C2.84847 9.38554 2.90706 9.30741 3.21956 9.34648C11.4618 10.3621 19.2547 15.0301 23.7274 19.659C24.5282 20.4598 25.0946 20.8699 25.8758 20.8699C27.1453 20.8699 27.7508 20.2449 28.3953 18.9363C29.5282 16.5926 30.5243 15.3426 32.8485 15.3426ZM29.1961 14.8348L31.8328 13.9168C29.118 7.62773 25.3875 3.29179 20.3094 0.381632C18.8055-0.477743 17.2821 0.166789 16.8719 1.78788C15.8953 5.34257 15.5047 8.76054 15.9735 12.3152L19.0399 13.7605C18.3368 10.2059 18.4735 7.10038 19.2938 3.78007C19.3524 3.42851 19.7039 3.31132 19.9969 3.4871C23.9422 6.06523 26.8914 9.61991 29.1961 14.8348ZM34.1375 19.698C34.7821 19.698 35.3289 19.1707 35.3289 18.5066C35.3289 17.8621 34.7821 17.2957 34.1375 17.2957C33.4539 17.2957 32.9266 17.8621 32.9266 18.5066C32.9266 19.1707 33.4539 19.698 34.1375 19.698ZM37.3993 22.2371L44.5282 23.2527C45.8563 23.448 46.4813 21.4754 45.1336 20.909L38.6883 18.1746Z" fill="#000000" fill-opacity="0.85"/>
 </g>
</svg>
