<?xml version="1.0" encoding="UTF-8"?>
<!--Generator: Apple Native CoreSVG 175.5-->
<!DOCTYPE svg
PUBLIC "-//W3C//DTD SVG 1.1//EN"
       "http://www.w3.org/Graphics/SVG/1.1/DTD/svg11.dtd">
<svg version="1.1" xmlns="http://www.w3.org/2000/svg" xmlns:xlink="http://www.w3.org/1999/xlink" width="43.3752" height="44.2383">
 <g>
  <rect height="44.2383" opacity="0" width="43.3752" x="0" y="0"/>
  <path d="M8.32219 41.0938C9.12297 41.7188 10.1386 41.5039 11.3495 40.625L21.6816 33.0273L32.0331 40.625C33.2441 41.5039 34.2402 41.7188 35.0605 41.0938C35.8613 40.4883 36.037 39.4922 35.5488 38.0664L31.4667 25.918L41.8964 18.418C43.1073 17.5586 43.5956 16.6602 43.2831 15.6836C42.9706 14.7461 42.0527 14.2773 40.5488 14.2969L27.7558 14.375L23.8691 2.16797C23.4003 0.722656 22.6972 0 21.6816 0C20.6855 0 19.9823 0.722656 19.5136 2.16797L15.6269 14.375L2.83391 14.2969C1.33 14.2773 0.412034 14.7461 0.0995335 15.6836C-0.232498 16.6602 0.275315 17.5586 1.48625 18.418L11.9159 25.918L7.83391 38.0664C7.34563 39.4922 7.52141 40.4883 8.32219 41.0938Z" fill="#ff9500"/>
 </g>
</svg>
